<?xml version="1.0" standalone="no"?>
<!DOCTYPE svg PUBLIC "-//W3C//DTD SVG 20010904//EN"
 "http://www.w3.org/TR/2001/REC-SVG-20010904/DTD/svg10.dtd">
<svg version="1.0" xmlns="http://www.w3.org/2000/svg"
 width="2430.000000pt" height="2430.000000pt" viewBox="0 0 2430.000000 2430.000000"
 preserveAspectRatio="xMidYMid meet">
<metadata>
Created by potrace 1.14, written by Peter Selinger 2001-2017
</metadata>
<g transform="translate(0.000000,2430.000000) scale(0.100000,-0.100000)"
fill="#000000" stroke="none">
<path d="M13149 16505 c-2 -2 -85 -6 -184 -10 -222 -8 -287 -11 -395 -19 -47
-3 -125 -8 -173 -11 -48 -3 -107 -8 -130 -10 -23 -3 -75 -7 -116 -10 -40 -3
-90 -7 -110 -10 -20 -2 -70 -7 -111 -10 -41 -3 -86 -8 -100 -10 -14 -2 -54 -7
-90 -10 -36 -4 -78 -8 -95 -11 -16 -2 -50 -6 -75 -9 -25 -3 -80 -10 -124 -16
-43 -5 -92 -12 -110 -14 -31 -4 -150 -22 -196 -29 -14 -2 -70 -12 -125 -21
-149 -24 -158 -26 -164 -29 -3 -2 -26 -7 -51 -10 -25 -3 -54 -8 -65 -10 -11
-2 -67 -14 -125 -26 -58 -12 -139 -30 -180 -40 -41 -11 -86 -21 -100 -24 -130
-25 -432 -121 -536 -171 -169 -81 -324 -226 -628 -585 -35 -42 -218 -288 -298
-400 -174 -246 -414 -624 -623 -977 -43 -73 -91 -146 -108 -163 -32 -32 -39
-34 -162 -29 -250 9 -904 -1 -1005 -16 -14 -2 -65 -7 -115 -10 -113 -8 -154
-11 -235 -19 -36 -4 -87 -9 -115 -12 -27 -2 -66 -7 -85 -9 -19 -3 -54 -7 -77
-10 -92 -11 -158 -19 -243 -30 -25 -3 -56 -8 -70 -10 -14 -3 -45 -7 -70 -10
-25 -3 -88 -12 -140 -21 -52 -8 -108 -17 -125 -20 -16 -2 -41 -7 -55 -9 -14
-3 -38 -7 -55 -10 -63 -9 -325 -57 -440 -81 -66 -13 -133 -27 -148 -29 -15 -3
-96 -21 -180 -41 -84 -19 -179 -41 -212 -49 -33 -7 -98 -23 -145 -35 -47 -11
-94 -23 -105 -26 -17 -3 -380 -105 -480 -134 -214 -61 -688 -222 -800 -271
-11 -4 -76 -30 -145 -57 -426 -167 -872 -396 -1185 -610 -224 -152 -363 -269
-570 -476 -345 -346 -592 -717 -797 -1196 -27 -63 -51 -122 -54 -130 -2 -8
-24 -73 -49 -145 -42 -118 -117 -374 -128 -435 -3 -14 -10 -43 -15 -65 -10
-38 -35 -153 -47 -220 -14 -84 -45 -276 -50 -324 -4 -30 -8 -61 -10 -70 -8
-44 -19 -174 -19 -238 -1 -57 3 -77 20 -100 56 -75 134 -93 210 -48 52 30 72
69 79 150 3 33 12 114 21 180 8 66 17 140 20 165 3 25 7 52 9 60 2 8 7 35 10
60 4 25 11 64 16 88 5 23 12 59 15 78 3 20 8 46 10 58 3 11 7 31 10 44 51 247
167 610 266 832 37 84 149 304 169 331 10 15 19 30 19 35 0 17 155 245 250
369 477 617 1158 1051 2285 1457 61 22 115 41 120 42 6 2 17 6 25 9 21 8 301
98 320 102 8 2 67 19 130 39 178 54 675 184 765 200 17 3 45 10 63 15 17 5 32
8 32 6 0 -3 10 -1 23 4 13 5 41 12 61 15 21 4 41 8 45 11 4 2 18 6 32 8 13 3
110 22 214 42 105 20 199 39 210 41 10 2 35 6 55 9 20 3 47 8 60 11 42 8 133
24 180 30 25 3 52 7 60 9 8 3 33 7 55 10 22 3 49 7 60 10 11 2 47 7 80 11 33
3 62 8 65 9 3 2 34 6 69 10 34 4 70 8 79 10 9 1 46 6 82 10 36 4 73 9 82 10 9
2 48 7 85 11 97 10 109 11 193 18 41 4 91 9 110 11 33 4 162 14 260 20 250 17
685 22 952 12 65 -2 139 0 165 4 95 18 188 80 260 174 29 38 133 203 133 210
0 2 37 66 83 142 217 360 440 693 652 978 298 399 511 616 677 689 113 50 441
147 608 180 14 2 71 14 128 25 56 11 117 23 135 26 17 4 50 10 72 15 22 5 60
11 85 15 25 3 52 8 60 10 8 2 35 7 60 10 25 3 56 8 70 10 30 6 60 10 165 25
44 6 91 13 105 15 14 2 52 7 85 11 33 3 69 8 80 10 10 2 49 6 85 9 36 4 72 8
80 10 8 2 49 7 90 10 41 3 91 8 110 10 80 9 149 15 210 20 36 2 97 7 135 10
107 9 169 13 305 20 69 4 148 8 175 10 417 30 1589 25 2168 -9 61 -4 148 -9
192 -12 44 -2 103 -6 130 -9 28 -2 88 -6 135 -10 47 -4 105 -8 130 -10 25 -3
81 -7 125 -10 44 -4 90 -8 103 -10 13 -2 65 -7 115 -11 51 -3 94 -8 97 -9 3
-2 43 -6 89 -10 46 -4 91 -8 101 -10 9 -2 49 -6 89 -10 40 -3 81 -8 91 -10 10
-2 45 -6 77 -10 32 -3 69 -7 83 -9 14 -2 52 -7 85 -11 33 -3 72 -8 86 -11 15
-2 47 -7 70 -10 24 -3 53 -7 64 -8 11 -2 45 -7 75 -10 30 -4 116 -19 190 -33
74 -13 146 -27 160 -29 14 -2 43 -9 65 -14 33 -8 112 -26 195 -45 87 -19 271
-73 455 -132 208 -68 326 -112 665 -254 107 -44 577 -287 705 -364 72 -42 146
-86 165 -97 134 -76 687 -467 785 -555 12 -10 41 -34 65 -53 246 -189 680
-598 970 -910 120 -129 104 -112 195 -215 38 -44 76 -86 83 -94 27 -28 271
-329 346 -426 43 -55 83 -107 89 -115 47 -58 277 -379 361 -504 204 -300 360
-552 551 -886 42 -74 97 -173 122 -220 25 -47 54 -98 63 -115 49 -82 272 -535
373 -755 14 -30 42 -91 62 -135 20 -44 55 -123 77 -175 22 -52 48 -113 58
-135 34 -76 189 -470 244 -623 65 -177 76 -196 127 -223 101 -51 209 9 225
126 4 27 -32 150 -70 240 -7 17 -37 93 -65 170 -29 77 -59 154 -66 170 -7 17
-31 75 -53 130 -55 137 -187 442 -267 616 -83 181 -335 683 -405 809 -29 52
-66 120 -83 150 -16 30 -48 87 -70 125 -23 39 -40 72 -40 75 1 3 -4 12 -11 20
-7 8 -46 71 -86 140 -164 280 -553 872 -657 1000 -7 8 -60 80 -120 160 -59 80
-110 147 -113 150 -3 3 -28 34 -55 70 -28 36 -52 67 -55 70 -3 3 -35 41 -70
85 -64 79 -308 365 -320 375 -3 3 -51 54 -106 115 -212 235 -566 578 -824 801
-551 474 -1108 848 -1710 1148 -427 212 -779 350 -1225 480 -214 62 -569 143
-750 171 -96 15 -233 35 -265 39 -19 2 -89 11 -155 20 -66 9 -162 20 -213 26
-52 6 -108 12 -125 15 -18 2 -59 7 -92 10 -70 7 -121 12 -190 20 -27 3 -75 8
-105 10 -62 5 -143 13 -210 20 -45 5 -97 9 -260 20 -47 4 -105 8 -130 10 -25
2 -92 7 -150 10 -58 4 -127 8 -155 10 -27 1 -113 6 -190 10 -77 3 -178 9 -225
12 -99 6 -1456 14 -1461 8z"/>
<path d="M12848 13165 c-2 -2 -40 -6 -85 -9 -45 -4 -90 -8 -100 -10 -10 -2
-38 -7 -63 -10 -462 -63 -836 -308 -994 -651 -93 -201 -124 -462 -76 -635 13
-50 52 -121 77 -142 9 -7 33 -36 54 -65 78 -105 163 -144 347 -158 l62 -5 -16
37 c-35 80 -45 147 -45 293 0 80 3 165 5 190 7 62 18 141 22 165 2 11 6 32 9
46 10 55 46 154 81 219 59 113 152 194 270 234 63 21 67 21 61 -11 -3 -16 -15
-71 -27 -123 -11 -52 -38 -178 -60 -280 -21 -102 -50 -235 -64 -296 -14 -62
-28 -129 -32 -150 -3 -22 -8 -42 -10 -45 -2 -3 -6 -21 -9 -40 -3 -19 -17 -83
-31 -144 -13 -60 -27 -121 -29 -135 -7 -37 -115 -540 -241 -1120 -8 -36 -16
-76 -19 -90 -3 -14 -20 -97 -40 -184 -39 -177 -40 -188 -22 -185 6 1 31 1 54
0 l42 -1 -10 -32 c-5 -18 -9 -43 -9 -55 l0 -23 315 0 c173 0 315 2 315 5 0 5
58 273 125 580 13 61 27 126 30 145 3 19 10 51 15 70 5 19 30 132 55 250 26
118 48 222 50 230 7 29 56 265 61 290 2 14 8 39 12 55 l8 30 305 2 c167 1 311
2 321 3 12 0 22 26 42 118 15 64 31 135 36 157 5 21 7 41 4 44 -2 3 -27 4 -55
4 l-51 -2 8 42 c4 23 7 49 8 57 1 12 -36 14 -256 15 -141 0 -259 3 -262 5 -3
3 -1 23 4 45 5 22 11 51 14 65 2 14 23 113 46 220 23 107 44 206 46 220 11 57
45 205 48 207 2 2 32 -3 67 -11 35 -8 84 -18 109 -21 24 -4 47 -8 50 -10 3 -1
30 -6 61 -9 31 -4 67 -9 80 -12 13 -3 79 -8 145 -11 103 -5 129 -3 170 13 154
58 240 150 292 314 11 36 30 93 41 128 11 34 16 62 11 62 -5 0 -31 -5 -59 -12
-28 -6 -53 -9 -56 -7 -4 5 16 87 30 122 6 15 4 16 -18 8 -35 -13 -131 -31
-207 -38 -118 -12 -407 -5 -520 12 -14 2 -54 6 -90 10 -36 3 -83 9 -105 11
-43 6 -342 13 -347 9z"/>
<path d="M4855 12220 c-74 -16 -155 -84 -188 -158 -30 -67 -29 -171 3 -232 12
-25 37 -61 54 -81 17 -20 47 -56 66 -79 97 -120 294 -126 403 -13 104 107 108
276 8 381 -16 16 -40 46 -54 67 -61 89 -185 138 -292 115z"/>
<path d="M16950 12197 c-3 -3 -30 -8 -60 -11 -30 -4 -74 -9 -96 -12 -23 -3
-50 -6 -61 -8 -10 -2 -46 -7 -78 -11 -33 -4 -67 -9 -75 -10 -9 -2 -60 -8 -115
-15 -55 -7 -104 -16 -108 -20 -5 -4 -35 -86 -66 -181 -61 -181 -167 -468 -206
-554 -13 -27 -37 -84 -55 -125 -60 -140 -202 -409 -228 -435 -15 -14 -51 -46
-80 -72 -85 -75 -137 -188 -146 -316 -4 -68 -21 -90 -97 -132 -50 -27 -126
-39 -181 -28 -26 5 -28 8 -28 60 0 30 12 109 26 176 14 67 27 131 30 142 2 11
8 43 14 70 6 28 12 59 14 70 3 11 12 54 21 95 9 41 18 86 21 100 2 14 8 43 14
65 7 31 52 242 85 400 2 11 13 65 25 120 12 55 23 110 26 123 3 13 16 75 29
138 14 64 23 119 21 123 -3 3 -27 6 -55 5 -43 -1 -51 2 -47 15 3 9 7 34 11 56
l6 40 -313 0 -312 0 -12 -35 c-10 -28 -79 -348 -98 -450 -2 -14 -25 -122 -51
-240 -51 -236 -104 -491 -111 -530 -49 -269 -156 -466 -284 -523 -60 -27 -127
-31 -139 -8 -13 24 -6 120 18 237 12 55 23 109 25 120 8 41 87 410 96 449 5
22 21 96 35 165 21 101 94 447 110 523 2 10 6 26 9 35 3 9 7 35 11 56 3 21 8
49 11 61 7 27 -6 33 -64 30 -30 -1 -42 2 -38 10 2 7 7 32 11 56 l7 44 -316 0
c-308 1 -315 0 -320 -20 -10 -38 -78 -360 -82 -390 -3 -16 -9 -46 -14 -65 -5
-19 -12 -51 -15 -70 -3 -19 -10 -51 -15 -70 -5 -19 -18 -82 -30 -140 -12 -58
-31 -145 -41 -195 -11 -49 -22 -103 -25 -120 -3 -16 -9 -43 -14 -60 -5 -16
-14 -55 -19 -85 -12 -66 -16 -84 -35 -175 -46 -213 -51 -333 -22 -489 10 -51
50 -140 82 -179 18 -23 53 -67 76 -97 70 -92 116 -126 217 -160 130 -43 330
-26 461 40 106 54 179 114 262 218 l50 63 17 -33 c18 -33 73 -102 148 -187
115 -130 336 -163 564 -86 103 36 194 92 290 182 l82 78 21 -30 c42 -61 153
-161 211 -192 159 -83 393 -101 620 -47 136 33 291 111 385 195 19 17 100 74
180 126 80 53 147 98 150 102 3 4 24 21 47 40 39 29 44 31 49 14 20 -61 69
-147 115 -204 30 -36 65 -80 78 -97 55 -74 177 -147 292 -177 173 -45 397 -39
577 17 208 63 390 177 562 351 41 42 77 74 81 71 4 -2 10 -16 13 -30 8 -29 62
-117 93 -149 10 -11 37 -45 59 -75 149 -201 431 -270 697 -170 109 41 261 160
355 279 l18 24 27 -44 c14 -24 36 -55 49 -69 13 -14 39 -46 58 -71 45 -59 84
-92 146 -123 109 -54 269 -55 374 -2 79 41 171 177 239 353 l20 51 -32 -9
c-17 -5 -49 -9 -69 -9 l-38 0 24 64 24 63 -36 -7 c-21 -4 -52 -7 -69 -6 -91 6
-82 -2 -78 74 3 55 30 207 61 337 3 11 7 31 10 45 3 14 47 226 99 471 52 245
96 456 99 470 2 13 11 54 20 92 9 37 18 82 21 100 3 17 10 47 15 65 9 35 9 36
-64 34 l-39 -1 6 43 c4 24 8 50 9 57 2 11 -56 14 -314 14 l-316 0 -12 -60
c-20 -107 -28 -118 -49 -66 -28 67 -117 122 -223 139 -88 14 -252 7 -320 -14
-9 -3 -25 -6 -35 -8 -40 -9 -140 -51 -197 -84 -292 -169 -526 -521 -636 -957
-41 -161 -47 -194 -56 -320 -3 -49 -7 -94 -8 -100 -1 -9 -131 -141 -182 -185
-183 -155 -423 -230 -633 -198 -85 14 -107 29 -121 89 -27 112 -14 363 29 549
5 25 12 56 15 70 8 42 45 177 57 207 6 15 12 35 14 43 7 33 95 239 125 295 49
89 102 164 152 214 72 73 170 105 186 60 11 -30 -4 -164 -27 -239 -23 -74 -20
-81 44 -103 30 -11 39 -19 36 -33 -8 -41 -4 -48 38 -70 76 -41 180 -30 246 27
91 79 119 305 56 451 -19 44 -96 142 -167 214 -185 186 -669 150 -964 -73
-198 -150 -335 -350 -471 -688 -28 -70 -81 -270 -94 -355 -4 -25 -9 -52 -10
-60 -6 -32 -17 -137 -19 -169 -1 -31 -9 -40 -75 -88 -41 -29 -76 -52 -77 -50
-2 2 -6 52 -9 112 -2 61 -7 137 -10 170 -3 33 -8 87 -10 120 -3 33 -7 87 -10
120 -3 33 -7 96 -10 140 -3 44 -7 107 -10 140 -2 33 -7 112 -11 175 -3 63 -7
138 -9 165 -2 28 -6 115 -10 195 -6 125 -9 166 -14 238 -1 10 -11 12 -41 7
-22 -4 -40 -3 -41 2 0 4 -2 31 -2 58 -2 46 -4 50 -27 53 -14 2 -28 1 -30 -1z
m3524 -508 c15 -14 -1 -114 -60 -374 -2 -11 -7 -33 -10 -50 -2 -16 -9 -46 -14
-65 -5 -19 -11 -46 -14 -60 -2 -14 -16 -81 -31 -150 -15 -69 -29 -136 -31
-150 -22 -120 -68 -289 -93 -338 -63 -125 -188 -226 -293 -236 -41 -4 -113 6
-124 16 -21 21 -33 258 -19 364 3 27 8 63 10 79 21 154 88 390 156 545 87 196
206 347 320 403 46 23 65 27 126 25 39 -2 74 -6 77 -9z m-4069 -420 c2 -24 7
-75 10 -114 3 -38 10 -110 16 -160 20 -175 24 -242 24 -385 -1 -133 -3 -150
-27 -207 -41 -101 -97 -155 -199 -195 -71 -27 -228 -30 -276 -5 -39 20 -39 21
-47 77 -9 64 0 73 52 55 104 -36 215 31 242 146 20 81 6 130 -49 183 -17 17
-31 34 -31 38 0 5 36 84 81 176 78 162 152 328 180 404 7 21 14 36 16 34 2 -2
5 -23 8 -47z"/>
<path d="M9380 12169 c-83 -13 -125 -18 -175 -24 -27 -3 -61 -8 -75 -10 -14
-2 -45 -7 -70 -10 -108 -13 -100 -6 -120 -110 -6 -33 -22 -107 -35 -165 -13
-58 -27 -121 -30 -140 -3 -19 -15 -73 -25 -120 -10 -47 -21 -96 -23 -110 -3
-14 -8 -38 -12 -55 -18 -76 -24 -82 -41 -37 -26 68 -126 109 -269 110 -351 2
-648 -263 -808 -723 -118 -341 -112 -717 16 -882 17 -23 51 -66 74 -97 90
-117 191 -167 343 -172 175 -6 284 40 422 176 l87 86 48 -60 c127 -159 166
-180 343 -180 117 0 130 2 207 33 97 38 178 95 251 176 45 51 54 57 64 43 7
-8 32 -40 55 -70 83 -107 187 -167 333 -193 63 -12 224 -7 285 8 182 44 343
164 459 342 65 99 133 245 150 320 1 6 7 26 14 45 14 43 41 189 47 255 10 104
14 113 60 145 60 41 132 119 183 198 45 69 122 215 122 230 0 5 -23 9 -51 8
-48 0 -53 -3 -77 -38 -13 -21 -26 -38 -28 -38 -2 0 17 38 41 85 25 47 44 85
43 86 -13 5 -99 5 -106 0 -4 -3 -27 -33 -49 -66 -44 -64 -95 -120 -124 -136
-16 -8 -20 -3 -30 33 -6 24 -21 63 -34 88 -22 44 -143 202 -175 228 -27 22
-92 54 -144 69 -52 15 -194 21 -256 10 -19 -4 -48 -9 -65 -12 -65 -11 -180
-60 -248 -104 -151 -99 -277 -253 -365 -447 -30 -67 -79 -198 -88 -236 -2 -10
-6 -26 -8 -36 -2 -9 -9 -35 -14 -57 -6 -22 -13 -56 -16 -75 -3 -19 -8 -46 -11
-60 -3 -14 -8 -74 -12 -135 -3 -60 -12 -121 -19 -135 -22 -45 -85 -110 -124
-130 -45 -23 -117 -32 -144 -18 -22 12 -19 63 13 203 11 50 23 106 26 125 3
19 15 73 25 120 11 47 44 204 75 350 31 146 64 303 75 350 10 47 22 99 25 117
3 18 21 103 40 190 18 87 36 169 39 183 9 46 52 244 66 307 18 77 16 82 -31
72 -22 -5 -44 -7 -49 -4 -4 3 -2 28 5 55 l13 50 -26 -2 c-15 -1 -47 -5 -72 -9z
m1156 -983 c2 -6 5 -27 7 -47 3 -30 -1 -39 -24 -54 -42 -29 -61 -71 -67 -147
-6 -80 14 -137 55 -159 22 -12 24 -17 18 -64 -4 -27 -13 -77 -21 -110 -8 -33
-16 -71 -19 -85 -9 -45 -57 -173 -92 -245 -71 -144 -154 -224 -243 -233 -87
-8 -97 -1 -105 70 -13 128 -6 234 25 390 65 318 210 610 335 676 57 30 122 34
131 8z m-1785 -13 c4 -4 0 -48 -11 -98 -20 -93 -78 -365 -86 -400 -2 -11 -7
-33 -9 -48 -3 -16 -14 -66 -25 -112 -11 -46 -22 -98 -25 -117 -18 -112 -48
-180 -106 -243 -58 -63 -129 -98 -197 -98 -29 0 -57 4 -62 9 -28 28 -31 241
-5 374 3 14 8 41 11 60 9 50 52 203 71 253 68 178 145 299 241 381 48 41 176
66 203 39z"/>
<path d="M3830 11512 c-302 -23 -544 -204 -707 -526 -41 -83 -114 -282 -128
-351 -61 -308 -58 -505 10 -653 29 -62 98 -154 170 -227 98 -98 245 -142 440
-132 125 7 137 9 231 38 144 44 278 127 411 253 l69 64 17 -46 c20 -57 148
-217 203 -253 70 -47 118 -58 239 -55 81 3 127 9 175 26 123 43 243 127 318
222 l30 38 57 -73 c32 -39 76 -89 98 -109 143 -132 388 -144 582 -27 54 32
195 163 195 181 0 15 19 8 24 -9 3 -10 18 -31 33 -48 16 -16 41 -48 58 -70 74
-99 135 -128 270 -129 92 -1 104 1 147 26 54 33 94 80 136 163 32 63 62 133
62 144 0 3 -25 4 -55 3 -33 -2 -55 0 -55 6 0 6 9 31 19 55 l20 45 -29 -8 c-36
-10 -101 -4 -110 10 -11 18 -2 82 41 275 33 155 136 639 143 675 2 14 21 101
40 194 20 93 36 171 36 172 0 2 -17 2 -37 0 -53 -4 -64 1 -54 27 5 12 8 33 7
46 l-1 24 -233 1 c-128 1 -240 -2 -249 -5 -9 -3 -17 -12 -19 -20 -1 -8 -5 -32
-9 -54 -9 -50 -14 -56 -29 -30 -24 42 -83 93 -121 105 -64 19 -231 22 -303 5
-174 -41 -337 -153 -459 -315 -37 -49 -143 -224 -143 -236 0 -2 -16 -46 -36
-97 -63 -161 -102 -337 -109 -498 -3 -72 -8 -94 -28 -126 -57 -88 -153 -153
-228 -155 -87 -2 -82 -6 -75 70 3 37 10 87 17 112 6 25 13 56 15 68 3 13 21
99 40 190 19 92 38 178 40 192 3 14 16 75 29 137 14 61 26 123 29 137 3 15 7
34 10 44 3 9 7 28 10 42 3 14 18 91 35 172 17 81 31 151 31 157 0 5 -21 8 -46
6 l-45 -2 5 39 c3 22 8 43 11 49 8 11 25 10 -258 12 -132 1 -241 -1 -243 -4
-3 -6 -25 -105 -37 -169 -3 -14 -12 -55 -21 -93 -9 -37 -18 -79 -21 -95 -3
-15 -7 -36 -9 -47 -14 -63 -88 -414 -92 -435 -33 -167 -58 -269 -71 -289 -48
-75 -228 -228 -328 -278 -102 -52 -275 -77 -374 -53 -44 10 -51 16 -62 47 -6
19 -12 74 -12 122 -6 442 246 1041 437 1041 27 0 27 -1 25 -57 -1 -32 -10 -87
-20 -123 -20 -73 -15 -85 35 -98 27 -7 31 -13 31 -42 0 -31 4 -36 46 -53 110
-46 215 20 244 153 11 52 8 154 -6 197 -15 46 -49 101 -79 128 -12 11 -28 32
-36 48 -44 84 -221 143 -394 129z m2533 -341 c8 -8 7 -26 -8 -96 -2 -5 -8 -35
-14 -65 -6 -30 -13 -65 -16 -77 -3 -13 -7 -33 -10 -45 -8 -36 -29 -133 -30
-138 -10 -41 -74 -348 -79 -376 -17 -94 -66 -184 -136 -247 -55 -50 -115 -74
-173 -71 -47 2 -64 17 -73 64 -7 38 -7 215 0 240 3 8 7 37 11 64 13 101 66
293 107 386 11 25 27 61 36 80 41 92 136 215 195 253 64 41 162 56 190 28z"/>
<path d="M20697 9633 c-2 -2 -158 -5 -837 -18 -417 -8 -1199 -22 -1635 -30
-159 -3 -414 -7 -565 -10 -151 -2 -414 -7 -585 -10 -333 -6 -674 -12 -1120
-20 -154 -3 -408 -8 -565 -10 -157 -3 -413 -7 -570 -10 -297 -5 -690 -12
-1160 -20 -151 -3 -405 -7 -565 -10 -159 -3 -427 -7 -595 -10 -168 -3 -422 -8
-565 -10 -326 -6 -1080 -19 -1700 -30 -481 -8 -907 -15 -1170 -20 -132 -3
-393 -7 -580 -10 -187 -3 -443 -7 -570 -10 -126 -2 -383 -7 -570 -10 -187 -3
-446 -8 -575 -10 -129 -2 -372 -7 -540 -10 -168 -3 -433 -7 -590 -10 -157 -3
-413 -7 -570 -10 -305 -5 -746 -13 -1110 -20 -124 -2 -371 -7 -550 -10 -436
-9 -480 -11 -528 -30 -40 -17 -72 -51 -72 -79 0 -8 -16 -33 -35 -56 -33 -39
-38 -53 -37 -105 0 -65 37 -130 113 -200 40 -37 116 -95 158 -120 9 -5 47 -29
84 -53 37 -23 183 -106 324 -183 241 -133 497 -284 658 -387 86 -56 244 -158
350 -228 44 -28 96 -60 115 -70 38 -19 139 -46 150 -39 4 2 17 6 31 8 13 3 81
25 149 50 185 67 376 111 700 162 241 38 350 54 395 60 39 5 52 6 143 19 23 3
59 8 80 11 20 2 91 11 157 20 189 24 207 26 260 30 46 4 82 9 165 20 19 3 60
7 90 10 30 3 66 7 80 10 14 2 54 7 90 10 36 3 81 8 100 10 40 5 110 12 190 20
30 3 91 10 135 15 44 5 112 12 150 15 39 3 81 8 95 10 14 2 61 7 105 11 44 3
88 8 98 10 9 1 56 6 105 9 48 4 94 9 103 10 9 2 52 6 95 10 43 4 90 8 104 10
14 2 66 7 115 11 50 3 99 8 110 10 11 2 54 6 95 9 41 3 91 8 110 10 19 2 71 7
115 11 44 4 91 8 105 9 14 2 61 6 105 10 44 3 96 8 115 10 19 2 67 6 105 10
39 3 93 8 120 10 28 3 77 7 110 10 157 13 183 16 225 20 25 2 79 7 120 10 41
4 95 8 120 10 25 2 74 7 110 10 36 3 85 7 110 10 25 3 79 7 121 10 41 2 93 7
115 9 21 3 75 7 119 10 44 4 105 9 135 11 30 3 78 7 105 10 28 2 88 7 135 10
47 4 101 8 120 10 19 2 76 6 125 10 50 3 106 7 125 10 19 2 78 7 130 10 52 4
109 8 125 10 32 4 133 12 230 20 33 2 87 7 120 9 33 3 96 8 140 11 44 3 100 7
125 10 51 4 173 14 270 21 36 2 91 7 123 9 137 12 176 15 252 20 128 9 207 15
255 20 25 3 86 7 135 10 50 3 110 8 135 10 25 3 86 7 135 11 109 7 147 10 250
19 44 3 103 8 130 10 28 2 91 7 140 11 50 3 106 7 125 9 19 2 78 6 130 10 52
4 113 8 135 10 22 2 87 6 145 10 58 3 116 8 130 10 14 2 72 7 130 10 58 4 121
8 140 10 19 2 80 6 135 10 55 4 116 8 135 10 19 2 78 6 130 10 52 4 118 8 145
11 28 2 84 6 125 9 41 3 98 8 125 10 28 2 91 7 140 10 50 3 113 8 142 10 28 3
91 7 140 10 48 3 108 7 133 10 25 3 86 7 135 10 50 3 110 8 135 10 58 5 200
16 265 20 64 4 217 15 275 20 25 2 86 6 135 10 50 3 115 8 145 10 52 5 87 7
255 20 39 2 102 7 140 10 39 3 99 8 135 10 36 3 94 7 130 10 36 3 94 7 130 10
36 3 94 7 130 10 36 3 101 7 145 10 44 3 100 7 125 10 25 2 79 7 120 10 41 3
100 7 130 10 30 2 91 7 135 11 44 3 96 7 115 9 38 4 203 17 260 20 19 2 89 8
155 14 66 6 158 13 205 16 47 3 110 7 140 10 30 2 98 7 150 10 52 3 115 8 140
10 25 2 81 7 125 10 44 3 103 8 130 10 28 3 82 7 120 10 150 12 186 15 365 30
196 18 250 40 250 103 0 14 14 37 35 56 40 38 44 68 18 114 -31 55 -41 57
-256 57 -109 0 -199 0 -200 -2z"/>
<path d="M20869 9086 c-3 -3 -32 -8 -65 -11 -34 -4 -76 -10 -95 -14 l-34 -7
-52 -244 c-29 -135 -64 -297 -78 -360 -44 -204 -42 -237 23 -330 50 -73 91
-93 191 -93 62 0 88 5 133 25 116 53 196 162 235 319 3 13 7 65 9 114 4 106
-12 169 -59 234 -49 67 -76 83 -141 84 -32 1 -56 6 -56 12 0 5 11 56 24 112
l23 102 -28 -6 c-26 -5 -27 -4 -22 31 4 34 2 42 -8 32z m70 -445 c36 -23 13
-210 -39 -317 -36 -73 -56 -93 -105 -101 l-37 -6 5 44 c7 54 75 360 81 367 4
3 51 16 76 21 3 0 11 -3 19 -8z"/>
<path d="M18291 8808 c-69 -12 -126 -45 -179 -103 -85 -93 -142 -247 -144
-389 -1 -62 4 -84 25 -128 56 -113 112 -156 214 -162 106 -6 204 31 290 111
l43 40 37 -51 c51 -69 111 -99 197 -97 109 1 197 55 259 159 36 58 74 169 80
232 3 30 8 35 35 41 18 4 32 5 32 4 0 -1 -11 -51 -24 -111 -14 -60 -27 -122
-30 -139 -9 -48 -17 -89 -22 -107 -4 -14 1 -18 21 -18 24 0 26 -3 20 -28 l-6
-29 103 1 102 1 7 30 c17 78 60 283 64 305 3 14 7 36 10 50 3 14 7 34 9 45 9
45 46 113 71 133 41 32 56 29 50 -10 -7 -40 -52 -257 -66 -318 -6 -25 -13 -54
-15 -65 -13 -67 -16 -82 -20 -97 -4 -14 1 -18 22 -18 24 0 26 -3 21 -29 l-6
-29 101 1 102 2 27 125 c16 69 30 136 32 150 14 80 42 191 60 228 22 47 62 84
86 80 21 -4 18 -37 -20 -208 -39 -172 -36 -217 15 -294 48 -73 74 -89 141 -89
43 0 61 5 90 27 34 26 42 39 59 93 7 21 5 22 -24 17 -30 -6 -30 -6 -20 20 15
39 13 41 -22 41 -39 0 -39 -1 -3 150 50 204 49 256 -7 342 -39 62 -75 84 -135
88 -63 4 -123 -19 -170 -65 l-40 -40 -19 35 c-27 51 -90 79 -156 71 -55 -8
-97 -25 -117 -50 -18 -21 -29 -12 -23 19 5 28 6 28 -123 25 -78 -2 -74 0 -79
-26 -17 -83 -39 -165 -45 -169 -14 -8 -96 -18 -89 -11 20 22 -74 176 -123 202
-39 20 -124 20 -191 0 -114 -34 -215 -155 -260 -310 -15 -53 -13 -42 -22 -108
-7 -52 -12 -61 -58 -103 -30 -27 -69 -51 -97 -59 -46 -14 -125 -15 -137 -3 -9
8 -8 78 0 140 21 150 112 327 168 327 8 0 5 -32 -7 -69 -4 -14 1 -20 20 -25
20 -5 25 -11 20 -26 -5 -15 0 -23 19 -32 55 -24 109 36 100 112 -5 43 -70 141
-104 156 -35 17 -97 22 -149 12z m672 -144 c3 -4 -5 -21 -18 -39 -30 -38 -32
-78 -6 -104 16 -16 17 -26 11 -62 -10 -51 -32 -114 -54 -157 -16 -31 -60 -81
-74 -83 -42 -8 -53 -5 -58 16 -17 68 29 251 89 351 36 62 89 99 110 78z m224
-130 c-3 -3 -12 -4 -19 -1 -8 3 -5 6 6 6 11 1 17 -2 13 -5z m-667 -293 c0 -5
-19 -24 -42 -42 l-43 -33 40 42 c42 45 45 47 45 33z"/>
<path d="M21283 8802 c-36 -4 -29 15 -78 -219 -20 -92 -37 -177 -40 -188 -2
-11 -15 -74 -30 -140 -14 -66 -27 -130 -30 -142 -5 -19 -1 -23 21 -23 24 0 26
-3 21 -29 l-6 -29 102 1 102 2 22 105 c12 58 24 116 27 130 2 14 14 70 26 125
29 129 28 127 29 148 1 20 46 65 76 77 21 8 64 -23 65 -46 0 -21 37 -45 63
-40 63 11 105 68 91 123 -7 27 -41 85 -68 115 -33 37 -104 35 -166 -4 -50 -32
-67 -31 -62 3 l4 27 -68 4 c-38 1 -83 2 -101 0z m217 -126 c0 -3 -4 -8 -10
-11 -5 -3 -10 -1 -10 4 0 6 5 11 10 11 6 0 10 -2 10 -4z"/>
<path d="M17708 8293 c-58 -36 -68 -133 -18 -178 11 -10 20 -24 20 -31 0 -25
51 -54 96 -54 91 0 143 95 92 170 -13 19 -27 43 -31 52 -9 26 -67 58 -102 58
-16 0 -42 -8 -57 -17z"/>
<path d="M20255 8299 c-34 -17 -59 -60 -58 -101 1 -42 59 -140 95 -159 27 -14
80 -14 107 1 29 15 61 68 61 101 0 34 -71 142 -104 157 -32 14 -73 15 -101 1z"/>
</g>
</svg>
